# xmcd
#
# Track frame offsets:
#       151
#       17103
#       31774
#       48316
#       62163
#       78683
#       94797
#       112965
#       129461
#       145214
#       162718
#       178309
#       215145
#       230166
#       246766
#       261447
#       277265
#       305093
#
# Disc length: 4302 seconds
#
# Revision: 0
# Processed by: cddbd v1.4PL0 Copyright (c) Steve Scherf et al.
# Submitted via: WhereIsIt 3.24
#
DISCID=1a10cc12
DTITLE=Benjamin Diamond - The Ultimate Club Dance Collection Vol.17-CD1
DYEAR=1900
DGENRE=
TTITLE0=Malaria! Vs. Chicks On Speed - Kaltes Klares Wasser
TTITLE1=Safri Duo - Played-A-Live (The Bongo Song)
TTITLE2=Brooklyn Bounce - Born To Bounce (Music Is My Destiny)
TTITLE3=Public Domain - Operation Blade (Bass In The Place..)
TTITLE4=R.B.A. - No Alternative (Brooklyn Bounce Radio Edit)
TTITLE5=Cosmic Gate - Exploration Of Space
TTITLE6=Rmb - Deep Down Below
TTITLE7=Ratty - Sunrise (Here I Am)
TTITLE8=Fragma Feat. Maria Rubia - Everytime You Need Me
TTITLE9=Barcode Brothers - Dooh Dooh
TTITLE10=Dj Quicksilver - Ameno
TTITLE11=Cj Stone - Shining Star (Mario Lopez Vs. Sasha De Vrles Remix)
TTITLE12=Re-Flex - Ubap
TTITLE13=Marc Et Claude - Loving You (Dark Moon Radio Mix)
TTITLE14=Future Breeze - Mind In Motion
TTITLE15=Blue Nature - Now We Are Free (The Gladiator Theme)
TTITLE16=Barthezz - On The Move (Dumonde Mix)
TTITLE17=Gouryella - Tenshi
EXTD=
EXTT0=
EXTT1=
EXTT2=
EXTT3=
EXTT4=
EXTT5=
EXTT6=
EXTT7=
EXTT8=
EXTT9=
EXTT10=
EXTT11=
EXTT12=
EXTT13=
EXTT14=
EXTT15=
EXTT16=
EXTT17=
PLAYORDER=
